# This file uses centimeters as units for non-parametric coordinates.

mtllib Quad2SidedFlip.mtl
g default
v -0.500000 -0.500000 0.000000
v -0.500000 -0.500000 0.000000
v -0.500000 0.500000 0.000000
v -0.500000 0.500000 0.000000
v 0.500000 -0.500000 0.000000
v 0.500000 -0.500000 0.000000
v 0.500000 0.500000 0.000000
v 0.500000 0.500000 0.000000
vt 0.000000 -0.000000
vt 0.000000 1.000000
vt 1.000000 1.000000
vt 1.000000 -0.000000
vt 0.000000 1.000000
vt 0.000000 -0.000000
vt 1.000000 -0.000000
vt 1.000000 1.000000
vn 0.000000 0.000000 1.000000
vn 0.000000 0.000000 1.000000
vn 0.000000 0.000000 1.000000
vn 0.000000 0.000000 1.000000
vn 0.000000 0.000000 -1.000000
vn 0.000000 0.000000 -1.000000
vn 0.000000 0.000000 -1.000000
vn 0.000000 0.000000 -1.000000
s off
g Quad2Sided:Default
usemtl Quad2Sided:Default1
f 6/1/1 7/2/2 3/3/3 2/4/4
f 8/5/5 5/6/6 1/7/7 4/8/8
